<svg width="33" height="33" viewBox="0 0 33 33" fill="none" xmlns="http://www.w3.org/2000/svg">
<ellipse cx="16.4752" cy="16.5" rx="16.4752" ry="16.5" fill="#0897FF"/>
<path d="M19.9231 26V22.503C19.9577 22.0722 19.8982 21.639 19.7486 21.2324C19.599 20.8257 19.3627 20.4549 19.0554 20.1446C21.9538 19.8284 25 18.7531 25 13.8194C24.9998 12.5578 24.504 11.3445 23.6154 10.4308C24.0362 9.32706 24.0064 8.10705 23.5323 7.02421C23.5323 7.02421 22.4431 6.70795 19.9231 8.36155C17.8074 7.80025 15.5772 7.80025 13.4615 8.36155C10.9415 6.70795 9.85231 7.02421 9.85231 7.02421C9.37819 8.10705 9.34844 9.32706 9.76923 10.4308C8.87396 11.3513 8.37771 12.5755 8.38462 13.8465C8.38462 18.744 11.4308 19.8193 14.3292 20.1717C14.0255 20.4789 13.7913 20.8453 13.6418 21.2469C13.4923 21.6486 13.4309 22.0766 13.4615 22.503V26M13.4615 23.2892C8.84615 24.6446 8.84615 21.0302 7 20.5783L13.4615 23.2892Z" stroke="black" stroke-width="2" stroke-linecap="round" stroke-linejoin="round"/>
</svg>
