<svg width="33" height="33" viewBox="0 0 33 33" fill="none" xmlns="http://www.w3.org/2000/svg">
<ellipse cx="16.4752" cy="16.5" rx="16.4752" ry="16.5" fill="#0400DD"/>
<path d="M13.48 11.68C13.48 11.8936 13.4167 12.1024 13.298 12.28C13.1793 12.4576 13.0106 12.596 12.8133 12.6778C12.616 12.7595 12.3988 12.7809 12.1893 12.7392C11.9798 12.6976 11.7874 12.5947 11.6363 12.4437C11.4853 12.2926 11.3824 12.1002 11.3408 11.8907C11.2991 11.6812 11.3205 11.464 11.4022 11.2667C11.484 11.0694 11.6224 10.9007 11.8 10.782C11.9776 10.6633 12.1864 10.6 12.4 10.6C12.6864 10.6 12.9611 10.7138 13.1637 10.9163C13.3662 11.1189 13.48 11.3936 13.48 11.68V11.68ZM25 8.44V23.56C25 23.9419 24.8483 24.3082 24.5782 24.5782C24.3082 24.8483 23.9419 25 23.56 25H8.44C8.05809 25 7.69182 24.8483 7.42177 24.5782C7.15171 24.3082 7 23.9419 7 23.56V8.44C7 8.05809 7.15171 7.69182 7.42177 7.42177C7.69182 7.15171 8.05809 7 8.44 7H23.56C23.9419 7 24.3082 7.15171 24.5782 7.42177C24.8483 7.69182 25 8.05809 25 8.44ZM23.56 23.56V8.44H8.44V23.56H23.56ZM12.4 13.84C12.209 13.84 12.0259 13.9159 11.8909 14.0509C11.7559 14.1859 11.68 14.369 11.68 14.56V20.32C11.68 20.511 11.7559 20.6941 11.8909 20.8291C12.0259 20.9641 12.209 21.04 12.4 21.04C12.591 21.04 12.7741 20.9641 12.9091 20.8291C13.0441 20.6941 13.12 20.511 13.12 20.32V14.56C13.12 14.369 13.0441 14.1859 12.9091 14.0509C12.7741 13.9159 12.591 13.84 12.4 13.84ZM17.8 13.84C17.1518 13.84 16.5185 14.0343 15.982 14.398C15.9426 14.2252 15.8409 14.0731 15.6964 13.9706C15.5518 13.8681 15.3746 13.8225 15.1985 13.8426C15.0224 13.8627 14.86 13.9469 14.7422 14.0793C14.6244 14.2117 14.5595 14.3828 14.56 14.56V20.32C14.56 20.511 14.6359 20.6941 14.7709 20.8291C14.9059 20.9641 15.089 21.04 15.28 21.04C15.471 21.04 15.6541 20.9641 15.7891 20.8291C15.9241 20.6941 16 20.511 16 20.32V17.08C16 16.6026 16.1896 16.1448 16.5272 15.8072C16.8648 15.4696 17.3226 15.28 17.8 15.28C18.2774 15.28 18.7352 15.4696 19.0728 15.8072C19.4104 16.1448 19.6 16.6026 19.6 17.08V20.32C19.6 20.511 19.6759 20.6941 19.8109 20.8291C19.9459 20.9641 20.129 21.04 20.32 21.04C20.511 21.04 20.6941 20.9641 20.8291 20.8291C20.9641 20.6941 21.04 20.511 21.04 20.32V17.08C21.04 16.2207 20.6986 15.3966 20.091 14.789C19.4834 14.1814 18.6593 13.84 17.8 13.84V13.84Z" fill="black"/>
</svg>
