<svg width="38" height="39" viewBox="0 0 38 39" fill="none" xmlns="http://www.w3.org/2000/svg">
<path d="M21.2914 24.5508C21.2169 24.5788 21.1334 24.5854 21.0498 24.57C20.9663 24.5545 20.8859 24.5176 20.8174 24.4632C20.7468 24.4109 20.6909 24.3417 20.6566 24.2639L18.7201 20.2248L16.3694 23.5066C16.2987 23.5988 16.1892 23.6552 16.0652 23.6636C15.9411 23.6719 15.8126 23.6314 15.7078 23.551C15.603 23.4706 15.5307 23.357 15.5066 23.235C15.4825 23.113 15.5087 22.9926 15.5795 22.9005L17.9302 19.6186L13.5275 18.7935C13.4435 18.7805 13.3621 18.7445 13.2934 18.6898C13.2231 18.6377 13.1666 18.5696 13.13 18.4929C13.0935 18.4162 13.0783 18.3338 13.086 18.2546C13.095 18.1352 13.1533 18.0299 13.2482 17.9617C13.3431 17.8936 13.4668 17.8682 13.5924 17.8911L17.9984 18.7119L16.0653 14.6684C16.0215 14.556 16.0215 14.4368 16.0652 14.3348C16.1089 14.2327 16.1931 14.1553 16.301 14.1179C16.4089 14.0805 16.5326 14.0859 16.6474 14.133C16.7621 14.1801 16.8595 14.2655 16.9202 14.3721L18.8566 18.4112L21.3262 15.1929C21.3969 15.1007 21.5063 15.0443 21.6304 15.036C21.7544 15.0276 21.883 15.0681 21.9877 15.1485C22.0925 15.2289 22.1649 15.3426 22.1889 15.4646C22.213 15.5866 22.1868 15.7069 22.1161 15.799L19.6466 19.0173L24.0492 19.8425C24.1149 19.8497 24.1801 19.8699 24.2405 19.9018C24.301 19.9337 24.3555 19.9767 24.4006 20.0279C24.4457 20.0792 24.4804 20.1377 24.5025 20.1998C24.5247 20.2618 24.5338 20.3261 24.5293 20.3885C24.5248 20.4509 24.5068 20.5101 24.4764 20.5624C24.446 20.6148 24.4039 20.6591 24.3527 20.6925C24.3016 20.726 24.2424 20.7479 24.179 20.7569C24.1156 20.766 24.0493 20.7618 23.9843 20.7449L19.5783 19.9241L21.5114 23.9676C21.566 24.083 21.5735 24.2091 21.5323 24.3184C21.4911 24.4277 21.4044 24.5112 21.2914 24.5508Z" fill="white"/>
<path d="M38 19.3029C37.9952 14.2653 35.9918 9.43534 32.4297 5.8732C28.8675 2.31106 24.0376 0.307724 19 0.302887C13.9624 0.307724 9.13246 2.31106 5.57031 5.8732C2.00817 9.43534 0.0048369 14.2653 0 19.3029C0.0048369 24.3405 2.00817 29.1704 5.57031 32.7326C9.13246 36.2947 13.9624 38.298 19 38.3029H19.0183C24.0527 38.2932 28.878 36.2878 32.4362 32.7261C35.9943 29.1645 37.9952 24.3374 38 19.3029ZM15.675 23.2125L13.9577 18.3894L17.2827 14.4798L22.325 15.3933L24.0423 20.2163L20.7173 24.126L15.675 23.2125ZM4.60385 12.1596L13.9577 13.8769L4.14712 25.4231C3.27477 23.3072 2.86426 21.0294 2.94302 18.742C3.02179 16.4547 3.58802 14.2105 4.60385 12.1596ZM33.8529 13.1827C34.7252 15.2986 35.1357 17.5764 35.057 19.8638C34.9782 22.1511 34.412 24.3953 33.3962 26.4462L24.0423 24.7288L33.8529 13.1827ZM32.3913 10.4058L26.2346 17.6587L21.1192 3.37212C24.6234 3.82228 27.8769 5.42973 30.3635 7.93943C31.1191 8.69262 31.7984 9.51876 32.3913 10.4058ZM17.9769 3.2625L21.174 12.2144L6.26635 9.49231C6.6931 8.94899 7.15058 8.43051 7.63654 7.93943C10.3913 5.16253 14.0725 3.49757 17.9769 3.2625ZM5.60865 28.2L11.7654 20.9471L16.8808 35.2337C13.3766 34.7835 10.1231 33.176 7.63654 30.6663C6.88086 29.9132 6.20158 29.087 5.60865 28.2ZM20.0231 35.3433L16.826 26.3913L21.0279 27.1587H21.0462L31.7337 29.1135C31.3069 29.6568 30.8494 30.1753 30.3635 30.6663C27.6087 33.4432 23.9275 35.1082 20.0231 35.3433Z" fill="white"/>
</svg>
