<svg width="33" height="33" viewBox="0 0 33 33" fill="none" xmlns="http://www.w3.org/2000/svg">
<ellipse cx="16.4752" cy="16.5" rx="16.4752" ry="16.5" fill="#0897FF"/>
<path d="M16.5 7C11.2517 7 7 11.2523 7 16.5C7 21.7477 11.2523 26 16.5 26C21.7483 26 26 21.7477 26 16.5C26 11.2523 21.7477 7 16.5 7ZM21.166 13.5084L19.6068 20.8559C19.4916 21.3769 19.1815 21.5031 18.7487 21.258L16.3737 19.5075L15.2282 20.6107C15.102 20.737 14.9947 20.8443 14.7495 20.8443L14.9181 18.427L19.3194 14.4505C19.5112 14.2819 19.2771 14.1863 19.0239 14.3548L13.5844 17.7791L11.2401 17.0473C10.7307 16.8867 10.7191 16.538 11.3473 16.2928L20.5065 12.7607C20.9319 12.6075 21.3033 12.8643 21.1654 13.5078L21.166 13.5084Z" fill="black"/>
</svg>
