<svg width="33" height="33" viewBox="0 0 33 33" fill="none" xmlns="http://www.w3.org/2000/svg">
<ellipse cx="16.4752" cy="16.5" rx="16.4752" ry="16.5" fill="#0400DD"/>
<path d="M13.5233 25.0015H13.4433C11.8316 24.9874 10.2433 24.6151 8.79327 23.9115C8.52655 23.7862 8.30693 23.5788 8.16658 23.3197C8.02622 23.0606 7.9725 22.7633 8.01327 22.4715C8.05762 22.1777 8.19366 21.9053 8.40198 21.6934C8.6103 21.4815 8.88024 21.3408 9.17327 21.2915C10.0719 21.1716 10.9364 20.8687 11.7133 20.4015C10.3644 19.3469 9.32603 17.9471 8.70809 16.3503C8.09016 14.7535 7.91573 13.0193 8.20327 11.3315C8.24226 11.0641 8.35724 10.8136 8.53452 10.6097C8.71181 10.4059 8.94393 10.2572 9.20327 10.1815C9.45559 10.1022 9.72562 10.0989 9.97984 10.1717C10.2341 10.2446 10.4613 10.3906 10.6333 10.5915C11.2173 11.3573 11.9512 11.996 12.7902 12.4688C13.6292 12.9417 14.5557 13.2386 15.5133 13.3415C15.559 12.1633 16.0653 11.0502 16.9233 10.2415C17.3517 9.83126 17.8574 9.5104 18.4111 9.29759C18.9647 9.08479 19.5552 8.9843 20.1481 9.00199C20.741 9.01967 21.3244 9.15517 21.8644 9.4006C22.4043 9.64602 22.8901 9.99646 23.2933 10.4315C23.3983 10.5244 23.5288 10.5835 23.6679 10.6014C23.807 10.6192 23.9482 10.5949 24.0733 10.5315C24.3117 10.419 24.5772 10.3767 24.8388 10.4094C25.1004 10.4422 25.3472 10.5486 25.5506 10.7163C25.754 10.8841 25.9055 11.1062 25.9874 11.3567C26.0693 11.6073 26.0783 11.876 26.0133 12.1315C25.7826 13.0816 25.3456 13.9693 24.7333 14.7315C24.5983 17.5762 23.3441 20.2523 21.2442 22.1761C19.1443 24.0999 16.3689 25.1155 13.5233 25.0015V25.0015ZM13.5233 23.0015H13.6033C14.7659 23.0415 15.925 22.8503 17.0132 22.439C18.1014 22.0276 19.0972 21.4044 19.9427 20.6054C20.7883 19.8063 21.4668 18.8474 21.9389 17.7842C22.4111 16.7209 22.6675 15.5746 22.6933 14.4115C22.7098 14.0927 22.8412 13.7908 23.0633 13.5615C23.3072 13.2527 23.5152 12.9172 23.6833 12.5615C23.323 12.5622 22.9667 12.4868 22.6376 12.3403C22.3084 12.1939 22.0139 11.9796 21.7733 11.7115C21.5419 11.482 21.267 11.3011 20.9648 11.1791C20.6626 11.0572 20.3391 10.9968 20.0133 11.0015C19.6842 10.993 19.3566 11.0495 19.0495 11.168C18.7423 11.2864 18.4615 11.4643 18.2233 11.6915C17.9019 11.9965 17.6662 12.3806 17.5398 12.8053C17.4135 13.2299 17.4009 13.6804 17.5033 14.1115L17.7633 15.2515L16.5933 15.3315C15.3944 15.4292 14.1885 15.2652 13.0593 14.8508C11.93 14.4364 10.9044 13.7815 10.0533 12.9315C10.0168 14.2479 10.3461 15.5486 11.0046 16.6891C11.6631 17.8295 12.6249 18.765 13.7833 19.3915L14.7333 19.9315L14.1033 20.8315C13.422 21.725 12.4885 22.3938 11.4233 22.7515C12.1066 22.9228 12.8088 23.0068 13.5133 23.0015H13.5233Z" fill="black"/>
</svg>
